<svg xmlns="http://www.w3.org/2000/svg" viewBox="0 0 520 520" role="img" aria-labelledby="title desc">
<title id="title">Fran Personal</title><desc id="desc">Logomarca circular rosa da Fran Personal com os valores Disciplina, Foco, Constância e Resultados.</desc>
<defs>
  <linearGradient id="pink" x1="0" y1="0" x2="1" y2="1"><stop offset="0" stop-color="#ff9bc0"/><stop offset=".42" stop-color="#f34b8a"/><stop offset="1" stop-color="#9a1749"/></linearGradient>
  <linearGradient id="silver" x1="0" y1="0" x2="0" y2="1"><stop offset="0" stop-color="#fff"/><stop offset=".5" stop-color="#c8c4c7"/><stop offset="1" stop-color="#fff"/></linearGradient>
  <filter id="glow"><feGaussianBlur stdDeviation="4" result="b"/><feMerge><feMergeNode in="b"/><feMergeNode in="SourceGraphic"/></feMerge></filter>
  <path id="topArc" d="M95 262a165 165 0 0 1 330 0"/>
  <path id="bottomArc" d="M85 272a175 175 0 0 0 350 0"/>
</defs>
<g fill="none" stroke="url(#pink)" filter="url(#glow)"><circle cx="260" cy="260" r="222" stroke-width="8"/><circle cx="260" cy="260" r="205" stroke-width="2" opacity=".9"/><circle cx="260" cy="260" r="164" stroke-width="3" opacity=".75"/></g>
<g fill="url(#silver)" font-family="Arial,Helvetica,sans-serif" font-weight="800" font-size="23" letter-spacing="7"><text><textPath href="#topArc" startOffset="50%" text-anchor="middle">DISCIPLINA • FOCO</textPath></text><text><textPath href="#bottomArc" startOffset="50%" text-anchor="middle">CONSTÂNCIA • RESULTADOS</textPath></text></g>
<text x="260" y="275" text-anchor="middle" fill="url(#pink)" stroke="#6d1239" stroke-width="2" paint-order="stroke" font-family="Georgia,'Times New Roman',serif" font-size="132" font-style="italic" font-weight="700" letter-spacing="-10">Fran</text>
<path d="M122 287c90 10 203 6 285-22" fill="none" stroke="url(#pink)" stroke-width="7" stroke-linecap="round"/>
<g font-family="Arial,Helvetica,sans-serif" font-weight="700" letter-spacing="17" font-size="31" fill="url(#silver)"><text x="270" y="325" text-anchor="middle">PERSONAL</text></g>
<g transform="translate(260 375)" stroke="url(#pink)" fill="none" stroke-linecap="round" stroke-linejoin="round">
  <path d="M-132 0h54l13-19 15 38 18-39 15 20h34" stroke-width="7"/>
  <path d="M17 0h34l13-18 15 36 16-36 14 18h54" stroke-width="7"/>
  <g stroke-width="7"><path d="M-148-23v46M-160-17v34M148-23v46M160-17v34"/></g>
  <path d="M-27-14c0-31 54-31 54 0" stroke-width="10"/>
  <path d="M-36 2c-13 27-14 65 36 65s49-38 36-65z" fill="url(#pink)" stroke="#72143b" stroke-width="4"/>
  <path d="M-15 30l14-12-4 12 20-7-24 23z" fill="#fff" stroke="none"/>
</g>
</svg>